<?xml version="1.0" ?><svg enable-background="new 0 0 64 64" version="1.1" viewBox="0 0 64 64" xml:space="preserve" xmlns="http://www.w3.org/2000/svg" xmlns:xlink="http://www.w3.org/1999/xlink"><g id="row_4"><g id="creation"><path d="M28.4,52.6L28.4,52.6c-3.4,0-5.9-2.6-8.6-5.3c-0.5-0.5-1-1-1.5-1.6c-0.5-0.5-1.1-1-1.6-1.5    c-3.4-3.3-6.6-6.3-4.9-11.2c1.2-3.2,1.9-6.6,2.3-9.9C15,16.7,18.2,11,23.3,7c4.1-3.2,9.3-5,14.7-5c5.4,0,10.8,1.8,14.9,5.2    c5.4,4.4,8.6,10.6,9,17.5c0.4,6.8-2.2,13.5-7,18.3c-3.9,3.9-8.8,6.3-14.3,6.9c-3.1,0.3-6.3,1.1-9.7,2.3    C30.1,52.5,29.2,52.6,28.4,52.6z" fill="#FFB74D"/><path d="M38,4c-4.9,0-9.6,1.6-13.4,4.6c-4.7,3.7-7.7,8.9-8.4,14.8c-0.4,3.5-1.2,6.9-2.4,10.3    c-1.2,3.5,0.7,5.6,4.4,9.1c0.5,0.5,1.1,1,1.6,1.6c0.5,0.5,1,1.1,1.5,1.6c2.4,2.5,4.5,4.7,7.1,4.7h0c0.6,0,1.3-0.1,2-0.4    c3.5-1.3,6.9-2,10.1-2.4c5-0.6,9.5-2.7,13.1-6.3C58,37.1,60.3,31,60,24.8c-0.3-6.3-3.3-12-8.3-16C47.8,5.7,43,4,38,4z" fill="#FFE082"/><path d="M25.6,49.4c-0.9,0-2.7-1.9-4.2-3.5c-0.5-0.5-1.1-1.1-1.6-1.7c-0.6-0.6-1.1-1.1-1.7-1.6    c-3.8-3.6-3.7-4.1-3.4-4.9c1.3-3.7,2.2-7.4,2.6-11.2c0.6-4.8,3-9.1,6.9-12.1c3.1-2.4,7-3.7,11-3.7c4.1,0,8.1,1.4,11.2,3.9    c4.1,3.3,6.5,7.9,6.8,13.1c0.3,5.1-1.6,10.1-5.2,13.7c-2.9,2.9-6.6,4.7-10.7,5.1c-3.6,0.4-7.2,1.3-11,2.6    C26,49.3,25.8,49.4,25.6,49.4z" fill="#FFF9C4"/><circle cx="34" cy="31" fill="#FFFFFF" r="15"/><path d="M1,54.1l0,3.2c0,1.5,0.6,2.9,1.6,4c1.1,1.1,2.5,1.6,4,1.6c0,0,0,0,0,0l2.9,0C6.6,60.2,3.7,57.2,1,54.1z" fill="#263238"/><path d="M15.2,61.5l8.2-8.2L10,41.3l-7.5,7.5C1.6,49.7,1.1,51,1,52.3l0,1.8c2.7,3.1,5.5,6.1,8.6,8.8l2.1,0    C13,62.9,14.3,62.4,15.2,61.5z" fill="#CFD8DC"/><g><path d="M3.5,49.3c-0.4-0.4-1-0.4-1.4-0.1c-0.2,0.2-0.3,0.5-0.3,0.8c4.4,4.3,9.4,8,14.9,11     C11.9,57.7,7.4,53.7,3.5,49.3z" fill="#CFD8DC"/><path d="M16.7,61.1c-5.5-3-10.5-6.7-14.9-11c0,0.2,0.1,0.4,0.2,0.6c4,4.5,8.6,8.6,13.6,12.1     c0.2,0.1,0.4,0.2,0.6,0.2c0.3,0,0.6-0.1,0.8-0.4C17.3,62.1,17.2,61.5,16.7,61.1C16.7,61.1,16.7,61.1,16.7,61.1z" fill="#546E7A"/></g><g><path d="M3.1,45.9c0,0.2,0.1,0.4,0.2,0.6c4.4,5.1,9.5,9.7,15,13.6c0.2,0.1,0.4,0.2,0.6,0.2c0.3,0,0.6-0.1,0.8-0.4     c0.3-0.4,0.2-0.9-0.1-1.3C13.4,55.2,7.9,50.9,3.1,45.9z" fill="#546E7A"/><path d="M19.6,58.5c0,0-0.1-0.1-0.1-0.1c-5.4-3.8-10.3-8.2-14.7-13.2c-0.4-0.4-1-0.5-1.4-0.1     c-0.2,0.2-0.3,0.5-0.3,0.8C7.9,50.9,13.4,55.2,19.6,58.5z" fill="#CFD8DC"/></g><g><path d="M5.7,43c0,0.3,0,0.6,0.2,0.8c4.5,5.1,9.6,9.7,15.1,13.5c0.2,0.1,0.4,0.2,0.6,0.2c0.3,0,0.6-0.2,0.8-0.4     c0.2-0.3,0.2-0.8,0-1.1C16.2,52.6,10.6,48.2,5.7,43z" fill="#546E7A"/><path d="M22.5,56c-0.1-0.1-0.2-0.2-0.3-0.3c-5.4-3.7-10.4-8.2-14.7-13.2c-0.4-0.4-1-0.5-1.4-0.1     c-0.2,0.2-0.3,0.4-0.3,0.6C10.6,48.2,16.2,52.6,22.5,56z" fill="#CFD8DC"/></g><path d="M24.1,54.2c-0.6,0-1.2-0.2-1.7-0.6c-4.5-3.2-8.7-6.9-12.5-11c-1.1-1.2-1-3,0.1-4.1l1.2-1.2l15.6,15.6    l-0.5,0.5C25.7,53.9,24.9,54.2,24.1,54.2z" fill="#546E7A"/><path d="M27,54c-0.3,0-0.5-0.1-0.7-0.3l-16-16c-0.4-0.4-0.4-1,0-1.4s1-0.4,1.4,0l16,16c0.4,0.4,0.4,1,0,1.4    C27.5,53.9,27.3,54,27,54z" fill="#CFD8DC"/></g></g><g id="row_3"/><g id="row_2"/><g id="row_1"/></svg>